<svg xmlns="http://www.w3.org/2000/svg" version="1.1" xmlns:xlink="http://www.w3.org/1999/xlink" width="88" height="98"><svg viewBox="0 0 88 98" fill="none" xmlns="http://www.w3.org/2000/svg" class="">
<path d="M38.001 2.46389C41.7136 0.320796 46.2885 0.320464 50.001 2.46389L81.3018 20.5362C85.0143 22.6798 87.3017 26.6417 87.3018 30.9287V67.0723L87.2949 67.4727C87.1573 71.6046 84.8983 75.3872 81.3018 77.4639L50.001 95.5362C46.2884 97.6796 41.7136 97.6793 38.001 95.5362L6.69922 77.4639C3.10247 75.3873 0.843687 71.6048 0.706055 67.4727L0.698242 67.0723V30.9287C0.698252 26.7755 2.84577 22.9275 6.35547 20.7422L6.69922 20.5362L38.001 2.46389ZM48 5.92874C45.525 4.49987 42.476 4.50002 40.001 5.92874L8.69922 24C6.22402 25.4291 4.69923 28.0706 4.69922 30.9287V67.0723C4.69937 69.9302 6.22414 72.571 8.69922 74L40.001 92.0723C42.476 93.5008 45.5261 93.5012 48.001 92.0723L79.3018 74L79.5312 73.8623C81.8705 72.4055 83.3016 69.8407 83.3018 67.0723V30.9287C83.3017 28.0708 81.7768 25.4291 79.3018 24L48 5.92874ZM45.7217 71.9365L46.2383 78.918C45.4989 78.9727 44.7518 79 44.001 79C43.2503 79 42.5038 78.9726 41.7646 78.918L42.2803 71.9365L42.7969 64.9561C43.1929 64.9853 43.5951 65 44.001 65C44.4069 65 44.8091 64.9854 45.2051 64.9561L45.7217 71.9365ZM34.9922 62.2256C35.6492 62.6743 36.3413 63.0754 37.0615 63.4229L34.0195 69.7276L30.9785 76.0323C29.624 75.3788 28.3259 74.6264 27.0957 73.7862L34.9922 62.2256ZM60.9062 73.7862C59.6761 74.6264 58.3779 75.3788 57.0234 76.0323L53.9824 69.7276L50.9404 63.4229C51.6606 63.0754 52.3528 62.6744 53.0098 62.2256L60.9062 73.7862ZM29.5781 55.9395C29.9256 56.6598 30.3266 57.3517 30.7754 58.0088L19.2148 65.9053C18.3745 64.675 17.6223 63.3771 16.9688 62.0225L23.2734 58.9815L29.5781 55.9395ZM64.7285 58.9815L71.0332 62.0225C70.3797 63.3771 69.6274 64.6751 68.7871 65.9053L57.2266 58.0088C57.6753 57.3518 58.0764 56.6597 58.4238 55.9395L64.7285 58.9815ZM21.0645 47.2793L28.0449 47.7959C28.0156 48.1922 28.001 48.5938 28.001 49C28.001 49.4063 28.0156 49.8078 28.0449 50.2041L21.0645 50.7207L14.083 51.2373C14.0283 50.4977 14 49.7512 14 49C14 48.249 14.0283 47.5032 14.083 46.7637L21.0645 47.2793ZM73.9189 46.7627C73.9736 47.5024 74.001 48.2489 74.001 49C74.001 49.751 73.9736 50.4969 73.9189 51.2364L66.9375 50.7207L59.957 50.2041C59.9863 49.8078 60.001 49.4062 60.001 49C60.001 48.5938 59.9863 48.1922 59.957 47.7959L66.9375 47.2793L73.9189 46.7627ZM30.7754 39.9912C30.3266 40.6483 29.9256 41.3403 29.5781 42.0606L23.2734 39.0186L16.9688 35.9776C17.6223 34.6229 18.3745 33.325 19.2148 32.0948L30.7754 39.9912ZM68.7871 32.0948C69.6274 33.325 70.3797 34.623 71.0332 35.9776L64.7285 39.0186L58.4238 42.0606C58.0763 41.3403 57.6753 40.6483 57.2266 39.9912L68.7871 32.0948ZM34.0195 28.2725L37.0615 34.5772C36.3414 34.9246 35.6492 35.3257 34.9922 35.7744L27.0957 24.2139C28.3259 23.3737 29.624 22.6213 30.9785 21.9678L34.0195 28.2725ZM57.0234 21.9678C58.3779 22.6213 59.6761 23.3736 60.9062 24.2139L53.0098 35.7744C52.3528 35.3257 51.6606 34.9246 50.9404 34.5772L53.9824 28.2725L57.0234 21.9678ZM44.001 19C44.7517 19 45.4981 19.0274 46.2373 19.0821L45.7217 26.0635L45.2051 33.044C44.8091 33.0147 44.4069 33 44.001 33C43.5951 33 43.1929 33.0147 42.7969 33.044L42.2803 26.0635L41.7637 19.0821C42.503 19.0274 43.2501 19 44.001 19Z" fill="currentColor"></path>
</svg><style>@media (prefers-color-scheme: light) { :root { filter: none; } }
</style></svg>